<?xml version="1.0" encoding="utf-8"?>
<!-- Generator: Adobe Illustrator 23.0.1, SVG Export Plug-In . SVG Version: 6.00 Build 0)  -->
<svg version="1.1" id="Capa_1" xmlns="http://www.w3.org/2000/svg" xmlns:xlink="http://www.w3.org/1999/xlink" x="0px" y="0px"
	 viewBox="0 0 193.7 193.7" style="enable-background:new 0 0 193.7 193.7;" xml:space="preserve">
<style type="text/css">
	.st0{fill:url(#SVGID_1_);}
	.st1{fill:#FFFFFF;}
</style>
<g>
	<linearGradient id="SVGID_1_" gradientUnits="userSpaceOnUse" x1="0" y1="96.87" x2="193.739" y2="96.87">
		<stop  offset="0" style="stop-color:#66A6FF"/>
		<stop  offset="1" style="stop-color:#89F7FE"/>
	</linearGradient>
	<path class="st0" d="M96.9,0C43.5,0,0,43.5,0,96.9s43.5,96.9,96.9,96.9s96.9-43.5,96.9-96.9S150.3,0,96.9,0z M152.5,80.5
		l-60.9,60.9c-2.6,2.6-6,4-9.7,4c-3.7,0-7.1-1.4-9.7-4l-31-31c-2.6-2.6-4-6-4-9.7c0-3.7,1.4-7.1,4-9.7c2.6-2.6,6-4,9.7-4
		c3.7,0,7.1,1.4,9.7,4l21.3,21.3l51.2-51.2c2.6-2.6,6-4,9.7-4c3.7,0,7.1,1.4,9.7,4C157.8,66.5,157.8,75.2,152.5,80.5z"/>
	<path class="st1" d="M152.5,80.5l-60.9,60.9c-2.6,2.6-6,4-9.7,4c-3.7,0-7.1-1.4-9.7-4l-31-31c-2.6-2.6-4-6-4-9.7
		c0-3.7,1.4-7.1,4-9.7c2.6-2.6,6-4,9.7-4c3.7,0,7.1,1.4,9.7,4l21.3,21.3l51.2-51.2c2.6-2.6,6-4,9.7-4c3.7,0,7.1,1.4,9.7,4
		C157.8,66.5,157.8,75.2,152.5,80.5z"/>
</g>
</svg>
